<svg width="12" height="11" viewBox="0 0 12 11" fill="none" xmlns="http://www.w3.org/2000/svg">
<path fill-rule="evenodd" clip-rule="evenodd" d="M6.00033 0.166504C6.36852 0.166504 6.66699 0.464981 6.66699 0.833171V4.83317H10.667C11.0352 4.83317 11.3337 5.13165 11.3337 5.49984C11.3337 5.86803 11.0352 6.16651 10.667 6.16651H6.66699V10.1665C6.66699 10.5347 6.36852 10.8332 6.00033 10.8332C5.63214 10.8332 5.33366 10.5347 5.33366 10.1665V6.16651H1.33366C0.965469 6.16651 0.666992 5.86803 0.666992 5.49984C0.666992 5.13165 0.965469 4.83317 1.33366 4.83317H5.33366V0.833171C5.33366 0.464981 5.63214 0.166504 6.00033 0.166504Z" fill="#F8F8F9"/>
</svg>
