<svg width="262" height="7" viewBox="0 0 262 7" fill="none" xmlns="http://www.w3.org/2000/svg">
<path d="M0 3.5C0 1.84315 1.34315 0.5 3 0.5H79C80.6569 0.5 82 1.84315 82 3.5C82 5.15685 80.6569 6.5 79 6.5H3C1.34315 6.5 0 5.15685 0 3.5Z" fill="#DEDEE9"/>
<path d="M90 3.5C90 1.84315 91.3431 0.5 93 0.5H169C170.657 0.5 172 1.84315 172 3.5C172 5.15685 170.657 6.5 169 6.5H93C91.3431 6.5 90 5.15685 90 3.5Z" fill="#0E8750"/>
<path d="M180 3.5C180 1.84315 181.343 0.5 183 0.5H259C260.657 0.5 262 1.84315 262 3.5C262 5.15685 260.657 6.5 259 6.5H183C181.343 6.5 180 5.15685 180 3.5Z" fill="#DEDEE9"/>
</svg>
