<svg width="23" height="32" viewBox="0 0 23 32" fill="none" xmlns="http://www.w3.org/2000/svg">
<g clip-path="url(#clip0_74340_6000)">
<path d="M4.25 15.325L8.5 14.325L17.7929 5.03216C18.1834 4.64163 18.1834 4.00847 17.7929 3.61794L15.9571 1.78216C15.5666 1.39163 14.9334 1.39163 14.5429 1.78216L5.25 11.075L4.25 15.325Z" stroke="#747488" stroke-width="1.5" stroke-linecap="round" stroke-linejoin="round"/>
<path d="M18.75 15.3252H13.25" stroke="#747488" stroke-width="1.5" stroke-linecap="round" stroke-linejoin="round"/>
</g>
<path d="M1.564 28.0752C1.436 28.0752 1.33467 28.0405 1.26 27.9712C1.19067 27.8965 1.156 27.7979 1.156 27.6752V22.8352C1.156 22.7125 1.19067 22.6165 1.26 22.5472C1.33467 22.4725 1.436 22.4352 1.564 22.4352H4.508C4.63067 22.4352 4.724 22.4645 4.788 22.5232C4.85733 22.5819 4.892 22.6645 4.892 22.7712C4.892 22.8779 4.85733 22.9605 4.788 23.0192C4.724 23.0725 4.63067 23.0992 4.508 23.0992H1.964V24.8752H4.348C4.47067 24.8752 4.564 24.9045 4.628 24.9632C4.69733 25.0219 4.732 25.1045 4.732 25.2112C4.732 25.3179 4.69733 25.4005 4.628 25.4592C4.564 25.5179 4.47067 25.5472 4.348 25.5472H1.964V27.4112H4.508C4.764 27.4112 4.892 27.5205 4.892 27.7392C4.892 27.8459 4.85733 27.9285 4.788 27.9872C4.724 28.0459 4.63067 28.0752 4.508 28.0752H1.564ZM8.93169 22.3952C9.05435 22.3952 9.15302 22.4299 9.22769 22.4992C9.30235 22.5685 9.33969 22.6619 9.33969 22.7792V27.7232C9.33969 27.8459 9.30235 27.9419 9.22769 28.0112C9.15835 28.0805 9.06235 28.1152 8.93969 28.1152C8.81702 28.1152 8.71835 28.0805 8.64369 28.0112C8.57435 27.9419 8.53969 27.8459 8.53969 27.7232V27.4032C8.42235 27.6379 8.25169 27.8192 8.02769 27.9472C7.80369 28.0699 7.54502 28.1312 7.25169 28.1312C6.91569 28.1312 6.61435 28.0459 6.34769 27.8752C6.08635 27.7045 5.88102 27.4645 5.73169 27.1552C5.58769 26.8459 5.51569 26.4912 5.51569 26.0912C5.51569 25.6859 5.58769 25.3312 5.73169 25.0272C5.88102 24.7232 6.08635 24.4885 6.34769 24.3232C6.60902 24.1579 6.91035 24.0752 7.25169 24.0752C7.54502 24.0752 7.80102 24.1392 8.01969 24.2672C8.24369 24.3899 8.41435 24.5659 8.53169 24.7952V22.7632C8.53169 22.6512 8.56635 22.5632 8.63569 22.4992C8.71035 22.4299 8.80902 22.3952 8.93169 22.3952ZM7.44369 27.4912C7.79035 27.4912 8.05969 27.3712 8.25169 27.1312C8.44369 26.8912 8.53969 26.5499 8.53969 26.1072C8.53969 25.6645 8.44369 25.3232 8.25169 25.0832C8.06502 24.8432 7.79569 24.7232 7.44369 24.7232C7.09169 24.7232 6.81702 24.8432 6.61969 25.0832C6.42769 25.3179 6.33169 25.6539 6.33169 26.0912C6.33169 26.5285 6.43035 26.8725 6.62769 27.1232C6.82502 27.3685 7.09702 27.4912 7.44369 27.4912ZM10.8743 28.1152C10.7569 28.1152 10.6583 28.0832 10.5783 28.0192C10.5036 27.9552 10.4663 27.8592 10.4663 27.7312V24.4832C10.4663 24.3552 10.5036 24.2592 10.5783 24.1952C10.6583 24.1259 10.7569 24.0912 10.8743 24.0912C10.9916 24.0912 11.0876 24.1259 11.1623 24.1952C11.2369 24.2592 11.2743 24.3552 11.2743 24.4832V27.7312C11.2743 27.8592 11.2369 27.9552 11.1623 28.0192C11.0876 28.0832 10.9916 28.1152 10.8743 28.1152ZM10.8743 23.3072C10.7196 23.3072 10.5969 23.2645 10.5063 23.1792C10.4156 23.0939 10.3703 22.9819 10.3703 22.8432C10.3703 22.7045 10.4156 22.5952 10.5063 22.5152C10.5969 22.4299 10.7196 22.3872 10.8743 22.3872C11.0236 22.3872 11.1436 22.4299 11.2343 22.5152C11.3303 22.5952 11.3783 22.7045 11.3783 22.8432C11.3783 22.9819 11.3329 23.0939 11.2423 23.1792C11.1516 23.2645 11.0289 23.3072 10.8743 23.3072ZM14.4251 27.4992C14.5425 27.5099 14.6251 27.5419 14.6731 27.5952C14.7265 27.6432 14.7531 27.7125 14.7531 27.8032C14.7531 27.9099 14.7105 27.9925 14.6251 28.0512C14.5451 28.1045 14.4251 28.1259 14.2651 28.1152L14.0491 28.0992C13.6171 28.0672 13.2945 27.9365 13.0811 27.7072C12.8678 27.4725 12.7611 27.1285 12.7611 26.6752V24.7952H12.2811C12.0465 24.7952 11.9291 24.6912 11.9291 24.4832C11.9291 24.3872 11.9585 24.3125 12.0171 24.2592C12.0811 24.2005 12.1691 24.1712 12.2811 24.1712H12.7611V23.3472C12.7611 23.2245 12.7958 23.1285 12.8651 23.0592C12.9398 22.9899 13.0385 22.9552 13.1611 22.9552C13.2838 22.9552 13.3825 22.9899 13.4571 23.0592C13.5318 23.1285 13.5691 23.2245 13.5691 23.3472V24.1712H14.3611C14.4731 24.1712 14.5585 24.2005 14.6171 24.2592C14.6811 24.3125 14.7131 24.3872 14.7131 24.4832C14.7131 24.5845 14.6811 24.6619 14.6171 24.7152C14.5585 24.7685 14.4731 24.7952 14.3611 24.7952H13.5691V26.7312C13.5691 26.9819 13.6198 27.1659 13.7211 27.2832C13.8278 27.4005 13.9878 27.4672 14.2011 27.4832L14.4251 27.4992ZM16.9734 24.0752C17.4908 24.0752 17.8748 24.2059 18.1254 24.4672C18.3814 24.7285 18.5094 25.1259 18.5094 25.6592V27.7312C18.5094 27.8539 18.4748 27.9499 18.4054 28.0192C18.3361 28.0832 18.2401 28.1152 18.1174 28.1152C18.0001 28.1152 17.9068 28.0805 17.8374 28.0112C17.7681 27.9419 17.7334 27.8485 17.7334 27.7312V27.4352C17.6321 27.6592 17.4801 27.8325 17.2774 27.9552C17.0801 28.0725 16.8481 28.1312 16.5814 28.1312C16.3254 28.1312 16.0908 28.0805 15.8774 27.9792C15.6694 27.8725 15.5041 27.7285 15.3814 27.5472C15.2588 27.3659 15.1974 27.1605 15.1974 26.9312C15.1921 26.6432 15.2641 26.4192 15.4134 26.2592C15.5628 26.0939 15.8054 25.9765 16.1414 25.9072C16.4774 25.8325 16.9441 25.7952 17.5414 25.7952H17.7254V25.5632C17.7254 25.2645 17.6641 25.0485 17.5414 24.9152C17.4188 24.7819 17.2214 24.7152 16.9494 24.7152C16.7628 24.7152 16.5868 24.7392 16.4214 24.7872C16.2561 24.8352 16.0748 24.9045 15.8774 24.9952C15.7334 25.0752 15.6321 25.1152 15.5734 25.1152C15.4934 25.1152 15.4268 25.0859 15.3734 25.0272C15.3254 24.9685 15.3014 24.8939 15.3014 24.8032C15.3014 24.7232 15.3228 24.6539 15.3654 24.5952C15.4134 24.5312 15.4881 24.4699 15.5894 24.4112C15.7761 24.3099 15.9948 24.2299 16.2454 24.1712C16.4961 24.1072 16.7388 24.0752 16.9734 24.0752ZM16.7254 27.5312C17.0188 27.5312 17.2588 27.4325 17.4454 27.2352C17.6321 27.0325 17.7254 26.7739 17.7254 26.4592V26.2512H17.5814C17.1654 26.2512 16.8454 26.2699 16.6214 26.3072C16.3974 26.3445 16.2374 26.4085 16.1414 26.4992C16.0454 26.5845 15.9974 26.7099 15.9974 26.8752C15.9974 27.0672 16.0668 27.2245 16.2054 27.3472C16.3441 27.4699 16.5174 27.5312 16.7254 27.5312ZM21.6627 24.0912C21.9187 24.0752 22.0467 24.1845 22.0467 24.4192C22.0467 24.5365 22.0174 24.6245 21.9587 24.6832C21.9 24.7419 21.7987 24.7765 21.6547 24.7872L21.4147 24.8112C21.0787 24.8432 20.828 24.9605 20.6627 25.1632C20.5027 25.3659 20.4227 25.6112 20.4227 25.8992V27.7312C20.4227 27.8592 20.3854 27.9552 20.3107 28.0192C20.236 28.0832 20.14 28.1152 20.0227 28.1152C19.9054 28.1152 19.8067 28.0832 19.7267 28.0192C19.652 27.9552 19.6147 27.8592 19.6147 27.7312V24.4752C19.6147 24.3525 19.652 24.2592 19.7267 24.1952C19.8067 24.1259 19.9054 24.0912 20.0227 24.0912C20.1294 24.0912 20.2174 24.1259 20.2867 24.1952C20.3614 24.2592 20.3987 24.3499 20.3987 24.4672V24.8512C20.5054 24.6165 20.66 24.4379 20.8627 24.3152C21.0654 24.1925 21.2947 24.1205 21.5507 24.0992L21.6627 24.0912Z" fill="#747488"/>
<defs>
<clipPath id="clip0_74340_6000">
<rect width="16" height="16" fill="white" transform="translate(3.5 0.0751953)"/>
</clipPath>
</defs>
</svg>
